<?xml version="1.0" standalone="no"?>
<!DOCTYPE svg PUBLIC "-//W3C//DTD SVG 20010904//EN"
 "http://www.w3.org/TR/2001/REC-SVG-20010904/DTD/svg10.dtd">
<svg version="1.0" xmlns="http://www.w3.org/2000/svg"
 width="274.000000pt" height="274.000000pt" viewBox="0 0 274.000000 274.000000"
 preserveAspectRatio="xMidYMid meet">
<metadata>
Created by potrace 1.14, written by Peter Selinger 2001-2017
</metadata>
<g transform="translate(0.000000,274.000000) scale(0.100000,-0.100000)"
fill="#000000" stroke="none">
<path d="M382 2298 c-7 -57 -12 -150 -12 -208 l0 -105 -21 25 c-11 14 -41 69
-67 123 -55 115 -56 115 -71 -70 -22 -253 19 -434 128 -571 55 -69 143 -133
261 -191 52 -25 96 -46 97 -46 1 0 -7 -50 -17 -110 -10 -61 -26 -185 -36 -277
l-17 -167 -71 -11 c-179 -30 -215 -86 -125 -200 95 -120 182 -103 228 44 12
38 21 76 21 86 0 20 4 21 90 40 70 16 189 64 260 106 125 74 225 194 288 346
17 42 52 147 77 234 25 88 59 187 75 221 33 73 98 147 153 175 36 18 46 19
126 8 47 -6 94 -13 105 -16 36 -11 6 14 -67 55 -57 33 -78 51 -95 85 -34 64
-145 171 -210 203 -45 22 -70 27 -127 27 -108 0 -185 -40 -298 -155 l-88 -91
-104 42 c-241 97 -345 197 -426 413 -18 48 -35 87 -39 87 -3 0 -12 -46 -18
-102z m184 -306 c69 -61 146 -103 319 -172 182 -73 240 -106 316 -180 62 -62
139 -187 139 -227 0 -8 -14 -63 -31 -122 -37 -131 -104 -272 -156 -331 l-40
-44 -6 54 c-8 69 -62 182 -117 243 -24 27 -100 93 -169 147 -217 169 -297 267
-346 422 -26 84 -49 272 -39 326 l6 33 34 -49 c18 -27 58 -72 90 -100z m855
36 c19 -6 53 -24 76 -40 44 -30 133 -131 133 -151 0 -7 -20 -23 -45 -36 -66
-35 -131 -111 -174 -202 l-38 -81 -28 49 c-60 103 -153 189 -257 239 -21 10
-38 22 -38 28 0 14 87 105 134 141 74 56 167 77 237 53z m-1074 -119 c25 -26
38 -53 49 -100 8 -35 34 -104 58 -154 53 -107 126 -192 259 -296 50 -40 97
-77 102 -81 15 -14 -201 88 -265 125 -30 17 -85 60 -121 96 -103 104 -144 209
-156 401 l-6 105 23 -30 c13 -16 39 -46 57 -66z m498 -725 c117 -71 166 -127
190 -220 23 -89 21 -99 -31 -135 -86 -59 -296 -131 -302 -104 -4 18 35 363 49
438 7 31 17 57 23 57 6 0 38 -16 71 -36z m-240 -591 c-12 -64 -36 -113 -55
-113 -17 0 -100 84 -100 101 0 13 22 23 80 35 84 19 83 19 75 -23z"/>
<path d="M2347 2265 c-191 -67 -321 -203 -413 -430 -43 -107 -38 -121 42 -111
69 8 216 56 301 99 180 91 311 239 329 371 6 39 3 48 -19 70 -23 23 -34 26
-99 26 -51 0 -93 -8 -141 -25z m197 -15 c34 -13 35 -59 1 -126 -51 -102 -149
-197 -266 -259 -85 -45 -272 -107 -308 -103 l-29 3 32 71 c53 120 108 203 176
267 79 74 144 111 242 137 84 22 116 24 152 10z"/>
<path d="M1814 1672 c-55 -40 -193 -189 -238 -256 -113 -170 -158 -384 -95
-447 102 -102 350 191 405 479 16 83 22 221 10 240 -12 20 -40 14 -82 -16z
m46 -141 c-19 -150 -59 -262 -133 -371 -47 -69 -117 -140 -159 -161 -38 -19
-38 -19 -59 2 -19 19 -21 30 -16 88 6 83 37 177 87 261 48 82 157 209 230 269
66 53 68 51 50 -88z"/>
<path d="M1935 1690 c-32 -52 54 -287 154 -420 126 -168 367 -256 411 -150 26
62 -6 188 -75 296 -70 109 -169 182 -328 242 -109 41 -151 49 -162 32z m171
-75 c103 -41 181 -92 240 -158 62 -69 114 -179 121 -256 8 -80 -4 -95 -69 -88
-122 15 -270 136 -345 282 -40 80 -74 170 -88 234 l-7 33 33 -7 c19 -4 71 -22
115 -40z"/>
<path d="M1881 800 c-61 -15 -110 -65 -126 -132 -7 -28 -7 -28 48 -28 52 0 56
2 65 30 16 45 51 57 105 36 57 -21 57 -21 57 19 0 38 -28 75 -57 75 -10 0 -27
2 -38 4 -11 3 -35 1 -54 -4z"/>
<path d="M2345 801 c-71 -18 -103 -61 -92 -127 8 -47 20 -60 90 -95 32 -17 57
-35 54 -42 -4 -14 -89 -16 -124 -4 -22 8 -23 6 -23 -38 0 -40 3 -47 26 -55 14
-6 51 -10 83 -10 94 0 157 56 147 129 -7 43 -34 72 -97 101 -80 38 -55 68 39
46 30 -7 32 -6 32 19 0 41 -17 63 -58 75 -20 5 -39 9 -42 9 -3 -1 -18 -4 -35
-8z"/>
<path d="M1527 793 c-4 -3 -7 -87 -7 -185 l0 -178 125 0 c123 0 125 0 125 23
0 43 -35 67 -99 67 l-41 0 0 140 0 140 -48 0 c-27 0 -52 -3 -55 -7z"/>
<path d="M2130 793 c-48 -18 -50 -28 -50 -200 l0 -163 55 0 55 0 -2 183 c-3
174 -4 182 -23 184 -11 1 -27 -1 -35 -4z"/>
<path d="M1759 542 c22 -74 78 -112 165 -112 47 0 61 4 81 25 31 30 36 92 8
79 -10 -4 -43 -8 -73 -9 -48 0 -56 3 -65 23 -8 19 -17 22 -67 22 l-57 0 8 -28z"/>
</g>
</svg>
